<svg xmlns="http://www.w3.org/2000/svg"  viewBox="0 0 100 100" width="400px" height="400px"><path fill="#3a83c1" d="M69.654,17.921h-39c-7.168,0-13,5.832-13,13v39c0,7.168,5.832,13,13,13h39c7.168,0,13-5.832,13-13 v-39C82.654,23.753,76.822,17.921,69.654,17.921z"/><path fill="#ead032" d="M19.064,34h5.5c4.988,0,9.032-4.355,9.032-9.727v-4.56L24,20.176l-4.738,7.708L19.064,34z"/><rect width="35" height="35" x="38.5" y="27.5" fill="#ead032" transform="rotate(-45.001 56 45)"/><path fill="#1f212b" d="M56,70.249c-0.133,0-0.26-0.053-0.354-0.146L30.898,45.354c-0.195-0.195-0.195-0.512,0-0.707 l24.749-24.749c0.188-0.188,0.52-0.188,0.707,0l24.749,24.749c0.195,0.195,0.195,0.512,0,0.707L56.354,70.103 C56.26,70.196,56.133,70.249,56,70.249z M31.958,45L56,69.042L80.042,45L56,20.958L31.958,45z"/><rect width="6" height="6" x="43.101" y="41.293" fill="#31c4f3" transform="rotate(-45.001 46.1 44.294)"/><path fill="#1f212b" d="M46.101,49.035c-0.128,0-0.256-0.049-0.354-0.146l-4.243-4.242 c-0.094-0.094-0.146-0.221-0.146-0.354s0.053-0.26,0.146-0.354l4.243-4.243c0.188-0.188,0.52-0.188,0.707,0l4.243,4.243 c0.094,0.094,0.146,0.221,0.146,0.354s-0.053,0.26-0.146,0.354l-4.243,4.242C46.356,48.986,46.229,49.035,46.101,49.035z M42.565,44.293l3.536,3.535l3.536-3.535l-3.536-3.536L42.565,44.293z"/><rect width="6" height="6" x="52.293" y="32.101" fill="#31c4f3" transform="rotate(-45.001 55.293 35.101)"/><path fill="#1f212b" d="M55.293,39.843c-0.128,0-0.256-0.049-0.354-0.146l-4.243-4.242 c-0.094-0.094-0.146-0.221-0.146-0.354s0.053-0.26,0.146-0.354l4.243-4.243c0.188-0.188,0.52-0.188,0.707,0l4.243,4.243 c0.094,0.094,0.146,0.221,0.146,0.354s-0.053,0.26-0.146,0.354l-4.243,4.242C55.549,39.794,55.421,39.843,55.293,39.843z M51.757,35.101l3.536,3.535l3.536-3.535l-3.536-3.536L51.757,35.101z"/><rect width="23" height="6" x="46.975" y="44.475" fill="#31c4f3" transform="rotate(-45.001 58.475 47.476)"/><path fill="#1f212b" d="M52.464,58.228c-0.128,0-0.256-0.049-0.354-0.146l-4.243-4.242 c-0.094-0.094-0.146-0.221-0.146-0.354s0.053-0.26,0.146-0.354l16.264-16.264c0.188-0.188,0.52-0.188,0.707,0l4.243,4.243 c0.195,0.195,0.195,0.512,0,0.707L52.818,58.081C52.72,58.179,52.592,58.228,52.464,58.228z M48.929,53.485l3.536,3.535 l15.557-15.556l-3.536-3.536L48.929,53.485z"/><path fill="#1f212b" d="M63.276,73H18.5c-0.276,0-0.5-0.224-0.5-0.5s0.224-0.5,0.5-0.5h44.776c0.276,0,0.5,0.224,0.5,0.5 S63.553,73,63.276,73z"/><path fill="#1f212b" d="M69.075,73h-2.266c-0.276,0-0.5-0.224-0.5-0.5s0.224-0.5,0.5-0.5h2.266c0.276,0,0.5,0.224,0.5,0.5 S69.351,73,69.075,73z"/><g><polygon fill="#375ca9" points="27.76,54.165 19.019,72.5 36.5,72.5"/></g><g><path fill="#1f212b" d="M36.5,73H19.019c-0.171,0-0.331-0.088-0.423-0.233c-0.092-0.145-0.103-0.327-0.028-0.481 l8.741-18.335c0.166-0.35,0.736-0.35,0.902,0l8.74,18.335c0.074,0.154,0.063,0.337-0.028,0.481C36.831,72.912,36.671,73,36.5,73z M19.812,72h15.896L27.76,55.327L19.812,72z"/></g><path fill="#1f212b" d="M28.539,27.917C29.38,27.681,30,26.917,30,26c0-1.105-0.895-2-2-2h-4.5c-0.276,0-0.5,0.224-0.5,0.5v5	c0,0.276,0.224,0.5,0.5,0.5h2c0.276,0,0.5-0.224,0.5-0.5v-0.879l1.232,1.232C27.326,29.947,27.453,30,27.586,30h1.828	c0.445,0,0.669-0.539,0.354-0.854L28.539,27.917z M27.5,26.75c-0.552,0-1-0.336-1-0.75c0-0.414,0.448-0.75,1-0.75s1,0.336,1,0.75	C28.5,26.414,28.052,26.75,27.5,26.75z"/><path fill="#1f212b" d="M69.654,17.921h-39c-7.168,0-13,5.832-13,13v39c0,7.168,5.832,13,13,13h39c7.168,0,13-5.832,13-13	v-39C82.654,23.753,76.822,17.921,69.654,17.921z M30.654,19.921h2.442v5.026c0,4.704-3.827,8.531-8.532,8.531h-4.91v-2.558	C19.654,24.856,24.589,19.921,30.654,19.921z M80.654,69.921c0,6.065-4.935,11-11,11h-39c-6.065,0-11-4.935-11-11V34.479h4.91	c5.256,0,9.532-4.275,9.532-9.531v-5.026h35.558c6.065,0,11,4.935,11,11V69.921z"/></svg>